Coordinates
version=1
nRows=12
nColumns=24
inDegrees=yes

Units are S.I. units (second, meters, Newtons, ...)
Angles are in degrees.

endheader
time	pelvis_tilt	pelvis_list	pelvis_rotation	pelvis_tx	pelvis_ty	pelvis_tz	hip_flexion_r	hip_adduction_r	hip_rotation_r	knee_angle_r	ankle_angle_r	subtalar_angle_r	mtp_angle_r	hip_flexion_l	hip_adduction_l	hip_rotation_l	knee_angle_l	ankle_angle_l	subtalar_angle_l	mtp_angle_l	lumbar_extension	lumbar_bending	lumbar_rotation
      1.41633333	      0.50742760	     -4.51773392	     -9.86071502	      0.95016262	      0.99321360	      0.29588477	    -17.31908070	      7.89447108	     12.55003506	    -14.43975336	     19.06749557	     -0.17654191	      2.98309949	     29.53994767	     -7.30024067	     -6.15483584	     -1.52524269	     10.80471670	     -7.77177719	     -2.82598270	     -0.99353397	      2.26918027	      9.09951809
      1.42050000	      0.47812628	     -4.39095761	     -9.99323160	      0.95593492	      0.99254211	      0.29571633	    -17.50046139	      7.66217642	     12.53375474	    -14.64245094	     18.95396772	     -0.09730139	      2.98103597	     29.49796627	     -7.18529683	     -5.87403001	     -2.08076380	     11.05806247	     -8.23699588	     -2.76125771	     -0.87164883	      2.12025449	      9.34273011
      1.42466667	      0.45326690	     -4.25183016	    -10.13193325	      0.96180419	      0.99188226	      0.29555935	    -17.69276624	      7.41391064	     12.54453754	    -14.83754131	     18.81990397	     -0.06221236	      2.98548407	     29.45180153	     -7.06330388	     -5.70376475	     -2.66141926	     11.40005536	     -8.49328019	     -2.73352949	     -0.73135995	      1.94030162	      9.39346962
      1.42883333	      0.42183819	     -4.11181458	    -10.25991006	      0.96770966	      0.99121506	      0.29536663	    -17.86631266	      7.16532710	     12.51744407	    -15.05026355	     18.66516593	     -0.00102798	      3.00149461	     29.39124025	     -6.92805865	     -5.49976783	     -3.20325039	     11.69371032	     -8.78863581	     -2.69796773	     -0.57936943	      1.77171350	      9.50519826
      1.43300000	      0.37653944	     -3.96854783	    -10.39039790	      0.97364427	      0.99053023	      0.29514188	    -18.00837026	      6.90895697	     12.45598667	    -15.29566743	     18.54502431	      0.16634422	      3.10221837	     29.32252957	     -6.78054835	     -5.22621720	     -3.70057012	     11.82488805	     -9.30478631	     -2.58755154	     -0.42298610	      1.61860739	      9.77937322
      1.43716667	      0.34787752	     -3.82036710	    -10.51282310	      0.97966130	      0.98987577	      0.29492459	    -18.17772022	      6.64947566	     12.41903820	    -15.52184413	     18.35068874	      0.21614239	      3.13605192	     29.24017369	     -6.62856224	     -5.07964430	     -4.22099240	     12.07236498	     -9.53517149	     -2.54672788	     -0.26040869	      1.43543095	      9.82536468
      1.44133333	      0.31519271	     -3.66912734	    -10.62737671	      0.98571659	      0.98921309	      0.29467529	    -18.32946100	      6.38549092	     12.34188036	    -15.77066113	     18.15028499	      0.31491338	      3.19389008	     29.14533453	     -6.46435076	     -4.92009946	     -4.69444609	     12.24927323	     -9.80033725	     -2.49161204	     -0.08539385	      1.25197767	      9.93552576
      1.44550000	      0.27348018	     -3.50435334	    -10.75540819	      0.99180551	      0.98855174	      0.29439306	    -18.44333887	      6.09632212	     12.22098539	    -16.07245849	     18.01899210	      0.56874531	      3.43345379	     29.03595232	     -6.28182174	     -4.72084805	     -5.11499690	     12.25298111	    -10.29101444	     -2.31611759	      0.07680322	      1.08437750	     10.19057687
      1.44966667	      0.23736252	     -3.34588305	    -10.85799738	      0.99796616	      0.98789677	      0.29411701	    -18.58544579	      5.82801295	     12.14479515	    -16.32911237	     17.75161236	      0.61960511	      3.49330060	     28.93823624	     -6.10496918	     -4.64753263	     -5.56059263	     12.36607633	    -10.45247959	     -2.26584148	      0.26724995	      0.89405385	     10.21453917
      1.45383333	      0.21436734	     -3.16256847	    -10.96650516	      1.00415384	      0.98726285	      0.29378672	    -18.69823437	      5.51590953	     11.96159925	    -16.66243691	     17.58406969	      0.88495327	      3.80799910	     28.79521896	     -5.88911475	     -4.51547273	     -5.91784273	     12.26753233	    -10.88266065	     -2.05272883	      0.42928441	      0.68845307	     10.43374612
      1.45800000	      0.17240213	     -2.99104801	    -11.04958630	      1.01039575	      0.98662334	      0.29346043	    -18.81978376	      5.23926328	     11.87092085	    -16.92878290	     17.19111754	      0.89434802	      6.66971646	     28.67336966	     -5.68239211	     -4.41027254	     -6.25734146	     12.10166128	    -11.22191668	     -0.11871122	      0.62284150	      0.48723468	     10.39360230
      1.46216667	      0.12188354	     -2.81219843	    -11.12794567	      1.01667443	      0.98597472	      0.29310016	    -18.90732623	      4.95247053	     11.71495176	    -17.24800275	     16.88141688	      1.00802446	      6.68870472	     28.58394802	     -5.47559964	     -4.44394559	     -6.63088952	     12.03471927	    -11.28207539	     -0.10637584	      0.85650990	      0.28660377	     10.47646555
